<svg viewBox="0 0 120 40" fill="none" xmlns="http://www.w3.org/2000/svg">
  <!-- Taco icon - cute/friendly style -->
  <g transform="translate(0, 2)">
    <!-- Shell -->
    <path d="M6 28C6 28 4 12 22 12C40 12 38 28 38 28" fill="#FDBA74" stroke="#EA580C" stroke-width="2.5"/>
    <!-- Lettuce wavy -->
    <path d="M10 20C12 18 14 20 16 18C18 20 20 18 22 20C24 18 26 20 28 18C30 20 32 18 34 20" stroke="#22C55E" stroke-width="3" stroke-linecap="round"/>
    <!-- Tomato bits -->
    <circle cx="14" cy="16" r="2" fill="#EF4444"/>
    <circle cx="22" cy="15" r="2.5" fill="#EF4444"/>
    <circle cx="30" cy="16" r="2" fill="#EF4444"/>
    <!-- Cheese drip -->
    <path d="M18 14L17 18M26 14L27 17" stroke="#FACC15" stroke-width="2" stroke-linecap="round"/>
  </g>
  <!-- Text "Taco" -->
  <text x="48" y="27" font-family="system-ui, -apple-system, sans-serif" font-size="22" font-weight="800" fill="#EA580C">Taco</text>
</svg>